<svg width="90" height="90" viewBox="0 0 90 90" fill="none" xmlns="http://www.w3.org/2000/svg">
<path d="M66.7874 16.7625C66.4874 16.7625 66.1874 16.6875 65.9249 16.5375C58.7249 12.825 52.4999 11.25 45.0374 11.25C37.6124 11.25 30.5624 13.0125 24.1499 16.5375C23.2499 17.025 22.1249 16.6875 21.5999 15.7875C21.1124 14.8875 21.4499 13.725 22.3499 13.2375C29.3249 9.45 36.9749 7.5 45.0374 7.5C53.0249 7.5 59.9999 9.2625 67.6499 13.2C68.5874 13.6875 68.9249 14.8125 68.4374 15.7125C68.0999 16.3875 67.4624 16.7625 66.7874 16.7625ZM13.1249 36.45C12.7499 36.45 12.3749 36.3375 12.0374 36.1125C11.1749 35.5125 10.9874 34.35 11.5874 33.4875C15.2999 28.2375 20.0249 24.1125 25.6499 21.225C37.4249 15.15 52.4999 15.1125 64.3124 21.1875C69.9374 24.075 74.6624 28.1625 78.3749 33.375C78.9749 34.2 78.7874 35.4 77.9249 36C77.0624 36.6 75.8999 36.4125 75.2999 35.55C71.9249 30.825 67.6499 27.1125 62.5874 24.525C51.8249 19.0125 38.0624 19.0125 27.3374 24.5625C22.2374 27.1875 17.9624 30.9375 14.5874 35.6625C14.2874 36.1875 13.7249 36.45 13.1249 36.45ZM36.5624 81.7125C36.0749 81.7125 35.5874 81.525 35.2499 81.15C31.9874 77.8875 30.2249 75.7875 27.7124 71.25C25.1249 66.6375 23.7749 61.0125 23.7749 54.975C23.7749 43.8375 33.2999 34.7625 44.9999 34.7625C56.6999 34.7625 66.2249 43.8375 66.2249 54.975C66.2249 56.025 65.3999 56.85 64.3499 56.85C63.2999 56.85 62.4749 56.025 62.4749 54.975C62.4749 45.9 54.6374 38.5125 44.9999 38.5125C35.3624 38.5125 27.5249 45.9 27.5249 54.975C27.5249 60.375 28.7249 65.3625 31.0124 69.4125C33.4124 73.725 35.0624 75.5625 37.9499 78.4875C38.6624 79.2375 38.6624 80.4 37.9499 81.15C37.5374 81.525 37.0499 81.7125 36.5624 81.7125ZM63.4499 74.775C58.9874 74.775 55.0499 73.65 51.8249 71.4375C46.2374 67.65 42.8999 61.5 42.8999 54.975C42.8999 53.925 43.7249 53.1 44.7749 53.1C45.8249 53.1 46.6499 53.925 46.6499 54.975C46.6499 60.2625 49.3499 65.25 53.9249 68.325C56.5874 70.125 59.6999 70.9875 63.4499 70.9875C64.3499 70.9875 65.8499 70.875 67.3499 70.6125C68.3624 70.425 69.3374 71.1 69.5249 72.15C69.7124 73.1625 69.0374 74.1375 67.9874 74.325C65.8499 74.7375 63.9749 74.775 63.4499 74.775ZM55.9124 82.5C55.7624 82.5 55.5749 82.4625 55.4249 82.425C49.4624 80.775 45.5624 78.5625 41.4749 74.55C36.2249 69.3375 33.3374 62.4 33.3374 54.975C33.3374 48.9 38.5124 43.95 44.8874 43.95C51.2624 43.95 56.4374 48.9 56.4374 54.975C56.4374 58.9875 59.9249 62.25 64.2374 62.25C68.5499 62.25 72.0374 58.9875 72.0374 54.975C72.0374 40.8375 59.8499 29.3625 44.8499 29.3625C34.1999 29.3625 24.4499 35.2875 20.0624 44.475C18.5999 47.5125 17.8499 51.075 17.8499 54.975C17.8499 57.9 18.1124 62.5125 20.3624 68.5125C20.7374 69.4875 20.2499 70.575 19.2749 70.9125C18.2999 71.2875 17.2124 70.7625 16.8749 69.825C15.0374 64.9125 14.1374 60.0375 14.1374 54.975C14.1374 50.475 14.9999 46.3875 16.6874 42.825C21.6749 32.3625 32.7374 25.575 44.8499 25.575C61.9124 25.575 75.7874 38.7375 75.7874 54.9375C75.7874 61.0125 70.6124 65.9625 64.2374 65.9625C57.8624 65.9625 52.6874 61.0125 52.6874 54.9375C52.6874 50.925 49.1999 47.6625 44.8874 47.6625C40.5749 47.6625 37.0874 50.925 37.0874 54.9375C37.0874 61.35 39.5624 67.35 44.0999 71.85C47.6624 75.375 51.0749 77.325 56.3624 78.7875C57.3749 79.05 57.9374 80.1 57.6749 81.075C57.4874 81.9375 56.6999 82.5 55.9124 82.5Z" fill="black"/>
</svg>
